<?xml version="1.0" encoding="UTF-8" standalone="no"?><svg xmlns="http://www.w3.org/2000/svg" viewBox="0 0 942.83 864.38"><defs><style>.cls-1{fill:#00508e;}.cls-2{fill:#fede59;}</style></defs><g id="font"><polygon class="cls-1" points="707.13 0 707.13 190.68 471.42 329.44 707.13 329.44 707.13 329.44 471.42 329.44 235.71 329.44 235.71 329.44 471.42 329.44 235.71 190.68 235.71 190.68 235.71 0 0 190.68 0 190.68 0 673.7 235.71 864.38 235.71 673.7 235.71 673.7 235.71 534.94 471.42 534.94 707.13 534.94 707.13 534.94 471.42 534.94 471.42 534.94 235.71 534.94 235.71 673.7 471.42 534.94 707.13 673.7 707.13 673.7 707.13 673.7 707.13 864.38 942.83 673.7 942.83 673.7 942.83 190.68 707.13 0"/><circle class="cls-2" cx="309.03" cy="454.01" r="73.5"/><circle class="cls-2" cx="859.83" cy="347.45" r="26.15" transform="translate(141.2 901.06) rotate(-67.5)"/><path class="cls-2" d="M801.32,378.57a26.12,26.12,0,1,0,26.15,26.15A26.15,26.15,0,0,0,801.32,378.57Z" transform="translate(-68.58 -107.81)"/><circle class="cls-2" cx="859.83" cy="462.17" r="26.15" transform="matrix(0.38, -0.92, 0.92, 0.38, 35.21, 971.87)"/><path class="cls-2" d="M914.92,376.39a26.14,26.14,0,1,0,26.15,26.15A26.15,26.15,0,0,0,914.92,376.39Z" transform="translate(-68.58 -107.81)"/><polygon class="cls-2" points="235.53 270.85 178.17 270.85 178.17 213.5 125.87 213.5 125.87 270.85 68.51 270.85 68.51 323.15 125.87 323.15 125.87 380.51 178.17 380.51 178.17 323.15 235.53 323.15 235.53 270.85"/><ellipse class="cls-2" cx="635.48" cy="454.01" rx="71.11" ry="72.82"/></g></svg>